<?xml version="1.0" encoding="UTF-8" standalone="no"?>
<!DOCTYPE svg PUBLIC "-//W3C//DTD SVG 1.1//EN" "http://www.w3.org/Graphics/SVG/1.1/DTD/svg11.dtd">
<svg width="100%" height="100%" viewBox="0 0 59 59" version="1.1" xmlns="http://www.w3.org/2000/svg" xmlns:xlink="http://www.w3.org/1999/xlink" xml:space="preserve" xmlns:serif="http://www.serif.com/" style="fill-rule:evenodd;clip-rule:evenodd;stroke-linejoin:round;stroke-miterlimit:2;">
    <g transform="matrix(1,0,0,1,-1397.36,-2982.05)">
        <g transform="matrix(1,0,0,2.6014,1118.89,2216.37)">
            <g transform="matrix(2.86184,0,0,1.10012,270.903,292.257)">
                <path d="M7.501,9L3.5,9C3.224,9 3,9.223 3,9.499L3,21.5C3,21.776 3.223,22 3.499,22L7.5,22C7.776,22 8,21.777 8,21.501L8,9.5C8,9.224 7.777,9 7.501,9ZM7,21L4,21L4,10L7,10L7,21ZM18,9C16.915,9 15.861,9.358 15,10.019L15,9.5C15,9.224 14.777,9 14.501,9L10.5,9C10.224,9 10,9.223 10,9.499L10,21.5C10,21.776 10.223,22 10.499,22L14.5,22C14.776,22 15,21.777 15,21.501L15,16C15,15.172 15.672,14.5 16.5,14.5C17.328,14.5 18,15.172 18,16L18,21.5C18,21.776 18.223,22 18.499,22L22.5,22C22.776,22 23,21.777 23,21.501L23,14C22.997,11.24 20.76,9.003 18,9ZM22,21L19,21L19,16C19,14.619 17.881,13.5 16.5,13.5C15.119,13.5 14,14.619 14,16L14,21L11,21L11,10L14,10L14,11.203C14,11.416 14.134,11.605 14.335,11.675C14.535,11.747 14.759,11.683 14.891,11.516C16.253,9.789 18.758,9.494 20.484,10.856C21.446,11.615 22.005,12.775 22,14L22,21Z" style="fill:rgb(94,129,172);fill-rule:nonzero;stroke:rgb(94,129,172);stroke-width:0.35px;"/>
            </g>
            <g transform="matrix(1,0,0,0.384408,-1118.85,-852.073)">
                <path d="M1405.5,2982.27C1400.98,2982.27 1397.32,2985.93 1397.32,2990.45C1397.32,2994.96 1400.98,2998.63 1405.5,2998.63C1410.01,2998.63 1413.68,2994.96 1413.68,2990.45C1413.68,2985.93 1410.01,2982.27 1405.5,2982.27ZM1405.5,2986.77C1407.53,2986.77 1409.18,2988.42 1409.18,2990.45C1409.18,2992.48 1407.53,2994.13 1405.5,2994.13C1403.47,2994.13 1401.82,2992.48 1401.82,2990.45C1401.82,2988.42 1403.47,2986.77 1405.5,2986.77Z" style="fill:rgb(94,129,172);"/>
            </g>
        </g>
    </g>
</svg>
