<?xml version="1.0" encoding="UTF-8" standalone="no"?>
<!DOCTYPE svg PUBLIC "-//W3C//DTD SVG 1.1//EN" "http://www.w3.org/Graphics/SVG/1.1/DTD/svg11.dtd">
<svg width="100%" height="100%" viewBox="0 0 568 935" version="1.1" xmlns="http://www.w3.org/2000/svg" xmlns:xlink="http://www.w3.org/1999/xlink" xml:space="preserve" xmlns:serif="http://www.serif.com/" style="fill-rule:evenodd;clip-rule:evenodd;stroke-linejoin:round;stroke-miterlimit:2;">
    <g transform="matrix(1,0,0,1,-2214.73,-2407.42)">
        <g transform="matrix(1,0,0,2.6014,1118.89,2216.37)">
            <g transform="matrix(1,0,0,0.384408,0,-851.99)">
                <path d="M1253.28,2453.87C1230.83,2452.79 1213.78,2463.89 1201.43,2480.25C1195.16,2488.56 1190.15,2498.25 1186.27,2508.27C1182.71,2502.3 1178.95,2498.03 1178.95,2498.03C1177.49,2496.35 1175.26,2495.55 1173.06,2495.9C1170.86,2496.25 1169,2497.7 1168.12,2499.75C1158.04,2523.27 1151.92,2549.46 1156.11,2573.6C1139.38,2607.78 1144.35,2653.7 1151.34,2688.71C1135.98,2689.34 1121.04,2699.12 1114.77,2715.25C1110.96,2725.04 1109.23,2735.56 1108.83,2746.02C1108.53,2753.76 1108.98,2761.51 1110.13,2769.16C1112.39,2784.04 1124.04,2811.48 1140.8,2824.99C1147.07,2830.05 1154.05,2833.24 1161.44,2833.7C1165.8,2833.98 1170.34,2833.33 1175,2831.48C1175.38,2852.84 1174.48,2911.31 1181.09,2929.01C1181.27,2929.5 1181.5,2929.97 1181.79,2930.41C1182.08,2930.84 1182.42,2931.23 1182.8,2931.58C1212.79,2959.94 1251.98,2990.51 1294.63,3011.99C1267.47,3016.83 1244.44,3030.26 1235.37,3036.12C1232.61,3034.22 1229.97,3032.42 1227.48,3030.73C1202.55,3013.89 1176.51,3014.83 1154.21,3022.17C1122.73,3032.53 1099.01,3055.82 1097.77,3057.04C1097.37,3057.44 1097.02,3057.89 1096.73,3058.38L1096.7,3058.43C1096.41,3058.94 1096.19,3059.49 1096.04,3060.05L1096.04,3060.07C1095.76,3061.17 1095.78,3062.29 1096.05,3063.32C1096.33,3064.36 1096.86,3065.34 1097.65,3066.16L1097.66,3066.18C1098.07,3066.59 1098.53,3066.96 1099.04,3067.26L1099.08,3067.28C1099.57,3067.56 1100.09,3067.78 1100.62,3067.92C1102.16,3068.35 1167.92,3086.75 1231.06,3118.18C1261.07,3133.12 1290.56,3150.94 1311.98,3171.26C1320.77,3207.06 1330.07,3260.62 1332.68,3332.9C1332.78,3335.58 1335.04,3337.68 1337.72,3337.58C1340.4,3337.49 1342.5,3335.23 1342.4,3332.55C1340.14,3269.91 1332.9,3221.1 1325.23,3185.48C1328.13,3189.06 1330.75,3192.71 1333.07,3196.42C1334.96,3199.45 1338.97,3200.38 1342,3198.49C1345.04,3196.59 1345.96,3192.59 1344.07,3189.55C1337.74,3179.42 1329.27,3169.7 1319.26,3160.45C1310.67,3127.81 1303.06,3111.93 1303.06,3111.93C1301.9,3109.51 1299,3108.48 1296.57,3109.64C1294.15,3110.8 1293.13,3113.7 1294.28,3116.12C1294.28,3116.12 1299.44,3126.97 1306.01,3149.15C1285.85,3133.2 1261.57,3118.89 1236.84,3106.58C1187.87,3082.2 1137.35,3065.52 1115.38,3058.78C1122.01,3053.4 1132.14,3046.07 1144.35,3040.16C1165.73,3029.79 1193.73,3023.58 1220.22,3041.47C1223.28,3043.54 1226.54,3045.78 1229.98,3048.15C1230.81,3049.2 1231.9,3049.93 1233.09,3050.31C1254.62,3065.29 1282.31,3085.38 1309.28,3105.21C1309.34,3105.26 1309.4,3105.3 1309.46,3105.34C1360.02,3142.53 1407.99,3178.79 1407.99,3178.79C1409.58,3179.99 1411.64,3180.39 1413.57,3179.88C1413.57,3179.88 1467.82,3165.33 1511.65,3138.64C1511.71,3138.61 1511.78,3138.57 1511.84,3138.53C1513.48,3137.52 1515.1,3136.51 1516.71,3135.47C1548.21,3115.19 1572.24,3088.17 1567.8,3056.44C1567.34,3053.14 1568.02,3049.67 1568.89,3046.23C1575.99,3049.14 1587.66,3054.28 1598.81,3060.66C1609.76,3066.92 1620.37,3074.22 1624.65,3082C1625.67,3083.86 1624.85,3086.38 1623.63,3089.43C1621.73,3094.21 1618.16,3099.71 1613.36,3105.62C1596.58,3126.24 1565.04,3151.16 1530.38,3166.3C1539.03,3146.36 1546.02,3134.87 1546.02,3134.87C1547.42,3132.57 1546.69,3129.58 1544.39,3128.19C1542.1,3126.79 1539.11,3127.52 1537.71,3129.81C1537.71,3129.81 1528.35,3145.21 1517.76,3171.31C1507.01,3175.15 1496.11,3177.92 1485.38,3179.23C1481.82,3179.67 1479.29,3182.9 1479.73,3186.45C1480.16,3190.01 1483.39,3192.54 1486.94,3192.1C1495.19,3191.1 1503.52,3189.29 1511.82,3186.83C1498.3,3224.42 1485.22,3277.56 1488.79,3336.95C1488.95,3339.63 1491.26,3341.67 1493.94,3341.51C1496.62,3341.35 1498.66,3339.05 1498.5,3336.37C1494.78,3274.57 1509.58,3219.72 1523.62,3182.9C1564.91,3167.66 1603.72,3138.01 1623.42,3113.8C1630.46,3105.15 1635.1,3097.08 1636.94,3090.52C1638.6,3084.62 1638.13,3079.61 1636.01,3075.75C1632.06,3068.57 1624.01,3061.38 1614.47,3055.06C1599.21,3044.95 1580.24,3036.81 1571.48,3033.29C1571.67,3029.61 1571.18,3026.17 1569.63,3023.1C1564.5,3012.91 1552.36,3005.72 1539.27,3001.27C1531.03,2998.47 1522.51,2996.68 1515.72,2995.56C1530.51,2986.45 1544.78,2976.92 1556.51,2968.13C1568.27,2959.33 1577.52,2951.22 1582.46,2945.02C1585.3,2941.45 1586.88,2938.23 1587.37,2935.69C1593.59,2903.81 1597.06,2863.33 1599.98,2824.69C1620.54,2830.72 1636.2,2822.33 1646.95,2808C1656.88,2794.75 1662.39,2776.15 1663.39,2760.38C1664.58,2741.82 1661.81,2722.74 1656.29,2705C1651.32,2689 1640.53,2678.57 1629.05,2676.88C1631.71,2661.54 1631.94,2642.8 1625.05,2629.04C1626.39,2627.62 1627.58,2626.08 1628.59,2624.47C1632.42,2618.31 1633.55,2611.18 1631.03,2604.97C1629.87,2602.13 1628.15,2599.48 1626.03,2597.04C1620.84,2580.31 1609.14,2565.18 1594.43,2554.87C1599.01,2551.98 1600.94,2548.75 1600.94,2548.75C1602.41,2546.51 1602.35,2543.61 1600.79,2541.44C1594.57,2532.73 1586.62,2525.13 1577.4,2518.64C1563.16,2464.03 1522.45,2439.56 1477.41,2432.72C1459.32,2429.97 1440.54,2430.11 1422.58,2432.28C1403.37,2407.1 1368.47,2405.66 1344.57,2408.43C1312.1,2412.2 1279.04,2429.31 1253.28,2453.87ZM1495.62,3007.49C1468.91,3022.77 1443.4,3035.01 1430.69,3037.51C1394.79,3044.57 1357.34,3038.14 1321.41,3024.01C1320.38,3023.61 1319.34,3023.19 1318.31,3022.77C1319.38,3043.8 1319.63,3084.91 1319.68,3096.77C1362.48,3128.28 1402.85,3158.67 1413.24,3166.51C1424.62,3163.22 1466.12,3150.45 1501.7,3129.49C1500.79,3111.7 1497.01,3037.72 1495.62,3007.49ZM1508.61,3007.59C1509.87,3034.97 1512.99,3096.3 1514.28,3121.53C1526.32,3113.33 1537.02,3104.1 1544.55,3093.82C1552.43,3083.09 1556.78,3071.22 1554.96,3058.23C1554.12,3052.17 1555.83,3045.58 1557.35,3039.33C1557.54,3038.53 1557.75,3037.74 1557.94,3036.97C1557.99,3036.39 1558.12,3035.82 1558.32,3035.25C1558.34,3035.2 1558.36,3035.16 1558.38,3035.11C1558.84,3032.87 1558.98,3030.77 1558.05,3028.93C1554.26,3021.4 1544.77,3016.84 1535.1,3013.55C1525.37,3010.24 1515.2,3008.48 1508.61,3007.59ZM1305.4,3023.58C1280.56,3025.88 1258.3,3037.31 1246.92,3044.16C1264.59,3056.58 1285.59,3071.77 1306.67,3087.21C1306.56,3070.11 1306.26,3040.11 1305.4,3023.58ZM1297.05,2556.04C1288.94,2568.98 1278.87,2579.92 1271.53,2584.76C1258.06,2593.64 1242.13,2595.88 1229.39,2591.08C1225.19,2597.43 1219.33,2603.93 1213.15,2607.54C1209.63,2609.6 1205.99,2610.77 1202.4,2610.88C1201.67,2611.66 1201.02,2612.76 1200.35,2613.81C1198.27,2617.07 1196.8,2620.56 1196.74,2620.71C1196.72,2620.74 1196.71,2620.77 1196.7,2620.8L1196.68,2620.85L1196.67,2620.87C1182.49,2652.6 1184.83,2689.14 1185.91,2723.09C1187.02,2758.03 1186.78,2793.02 1187.89,2827.99C1188.42,2844.96 1186.63,2903.89 1192.79,2923.18C1227.8,2956.1 1275.38,2991.98 1326.16,3011.95C1359.71,3025.14 1394.66,3031.38 1428.19,3024.79C1450.24,3020.46 1512.18,2985.14 1548.74,2957.76C1557.95,2950.86 1565.53,2944.49 1570.34,2939.24C1572.62,2936.75 1574.33,2934.83 1574.65,2933.2C1581.64,2897.38 1585.07,2850.54 1588.23,2807.9C1592.46,2750.87 1603.82,2691.74 1594,2635.39C1579.03,2629.64 1564.63,2620.53 1557.33,2605.79C1556.53,2604.19 1556.02,2602.66 1555.73,2601.2C1549.21,2601 1543.03,2600.75 1536.42,2598.74C1528.98,2596.48 1521.14,2591.99 1515.92,2586.35C1511.83,2581.93 1509.31,2576.78 1509.07,2571.43C1509.02,2570.42 1509.05,2569.4 1509.17,2568.37C1491.07,2572.99 1467.73,2578.18 1453.8,2580.31C1447.64,2581.25 1441.46,2582.06 1435.23,2582.28C1422.31,2582.74 1395.75,2581.97 1379.98,2573.51C1377.54,2572.2 1375.34,2570.72 1373.42,2569.05C1358.25,2575.63 1340.61,2577.75 1325.86,2574.72C1314.21,2572.32 1304.34,2566.72 1298.28,2557.96C1297.85,2557.33 1297.44,2556.69 1297.05,2556.04ZM1295.23,2817.52C1288.23,2819.83 1282.76,2822.83 1279.31,2827.68C1275.85,2832.53 1274.21,2839.39 1275.8,2849.89C1277.73,2862.61 1286.68,2872.45 1296.43,2880.11C1323.1,2901.05 1358.58,2902.89 1391.08,2902.51C1408.78,2902.3 1426.59,2900.76 1443.15,2894.09C1453.66,2889.86 1465.7,2884.07 1474.77,2875.92C1484.56,2867.13 1490.96,2855.69 1489.28,2840.75C1487.87,2828.28 1476.79,2815.1 1454.62,2814.95C1442.34,2814.87 1430.84,2819.89 1419.4,2823.52C1406.25,2827.69 1395.84,2831.3 1382.04,2831.78C1373.17,2832.08 1359.27,2828.96 1350.62,2826.95C1338.71,2824.18 1326.27,2819.89 1315.68,2817.73C1307.66,2816.1 1300.58,2815.75 1295.23,2817.52L1295.23,2817.52ZM1298.27,2826.75C1302.32,2825.42 1307.68,2826.03 1313.74,2827.26C1324.25,2829.4 1336.6,2833.68 1348.42,2836.43C1357.76,2838.6 1372.8,2841.83 1382.37,2841.49C1397.13,2840.98 1408.29,2837.25 1422.34,2832.79C1432.83,2829.46 1443.3,2824.6 1454.56,2824.68C1470.14,2824.78 1478.63,2833.07 1479.61,2841.84C1480.9,2853.28 1475.77,2861.95 1468.27,2868.69C1460.04,2876.08 1449.05,2881.23 1439.52,2885.07C1424.09,2891.29 1407.46,2892.6 1390.97,2892.79C1360.62,2893.15 1327.34,2892.01 1302.43,2872.46C1294.59,2866.3 1286.96,2858.67 1285.42,2848.44C1284.34,2841.33 1284.89,2836.61 1287.23,2833.32C1289.58,2830.02 1293.51,2828.32 1298.27,2826.75L1298.27,2826.75ZM1172.57,2711.44C1159.05,2694.72 1134.19,2701.07 1126.85,2719.95C1123.57,2728.4 1122.13,2737.49 1121.78,2746.52C1121.51,2753.45 1121.92,2760.37 1122.95,2767.22C1124.57,2777.88 1131.78,2796.03 1142.45,2808.51C1148.13,2815.14 1154.74,2820.29 1162.26,2820.76C1166.21,2821.01 1170.32,2819.88 1174.62,2817.14C1173.86,2785.92 1173.94,2754.69 1172.95,2723.5C1172.82,2719.51 1172.69,2715.49 1172.57,2711.44ZM1600.94,2811.92C1601.74,2811.85 1602.57,2811.93 1603.38,2812.17C1617.97,2816.55 1628.97,2810.36 1636.58,2800.22C1645.05,2788.92 1649.6,2773.01 1650.45,2759.55C1651.54,2742.56 1648.96,2725.09 1643.91,2708.85C1642.01,2702.72 1639.07,2697.61 1635.42,2694.1C1632.46,2691.24 1629.06,2689.49 1625.45,2689.61C1620.22,2689.8 1615.15,2693.71 1610.42,2701.4C1609.01,2737.26 1603.79,2773.46 1601.16,2808.86L1600.94,2811.92ZM1370.41,2793.24C1370.41,2793.24 1384.63,2798.66 1397.31,2797.16C1406.77,2796.04 1415.39,2791.36 1418.09,2779.19C1420.84,2766.78 1416.48,2760.96 1411.66,2756.87C1409.26,2754.84 1406.58,2753.48 1405.12,2751.6C1403.75,2749.83 1401.2,2749.51 1399.44,2750.88C1397.67,2752.26 1397.35,2754.8 1398.72,2756.57C1400.12,2758.37 1402.3,2759.92 1404.62,2761.65C1406.48,2763.02 1408.48,2764.56 1409.69,2767C1410.9,2769.44 1411.22,2772.72 1410.18,2777.43C1408.4,2785.45 1402.59,2788.37 1396.36,2789.11C1385.5,2790.39 1373.32,2785.67 1373.32,2785.67C1371.23,2784.87 1368.88,2785.91 1368.08,2788C1367.28,2790.09 1368.32,2792.43 1370.41,2793.24ZM1281.59,2709.65C1265.6,2703.88 1247.5,2712.97 1241.3,2730.15C1235.11,2747.33 1243.25,2765.88 1259.24,2771.65C1275.23,2777.41 1293.33,2768.33 1299.53,2751.15C1305.73,2733.97 1297.59,2715.42 1281.59,2709.65ZM1465.27,2711.04C1449.93,2718.36 1443.66,2737.62 1451.53,2754.11C1459.39,2770.59 1478.31,2777.84 1493.65,2770.52C1508.99,2763.2 1515.26,2743.94 1507.39,2727.45C1499.53,2710.97 1480.61,2703.72 1465.27,2711.04ZM1264.72,2717.14C1259.94,2719.59 1256.06,2723.76 1254.11,2729.17C1249.99,2740.61 1256.06,2753.29 1267.66,2757.47C1275.18,2760.19 1283.2,2758.66 1289.03,2754.13C1283.01,2763.22 1272,2767.64 1261.99,2764.03C1250.05,2759.72 1244.3,2745.73 1248.92,2732.9C1251.73,2725.11 1257.76,2719.44 1264.72,2717.14ZM1482.8,2716.82C1487.8,2718.79 1492.07,2722.55 1494.55,2727.74C1499.79,2738.72 1495,2751.94 1483.87,2757.25C1476.65,2760.7 1468.52,2759.97 1462.27,2756.04C1469.16,2764.49 1480.55,2767.79 1490.16,2763.21C1501.62,2757.74 1505.95,2743.25 1500.08,2730.94C1496.52,2723.47 1489.96,2718.42 1482.8,2716.82ZM1388.43,2736.85L1388.43,2736.85L1388.43,2736.85C1389.43,2736.85 1390.43,2736.48 1391.21,2735.75C1392.75,2734.3 1392.9,2731.93 1391.62,2730.3C1391.44,2729.96 1388,2723.32 1384.24,2699.37C1383.9,2697.16 1381.82,2695.65 1379.61,2696C1377.4,2696.34 1375.89,2698.42 1376.24,2700.63C1381.08,2731.55 1385.49,2735.58 1385.49,2735.58C1386.28,2736.42 1387.36,2736.85 1388.43,2736.85ZM1391.42,2730.07L1391.44,2730.08L1391.42,2730.06L1391.42,2730.07ZM1162.3,2593.5C1153.26,2624.58 1158.96,2662.13 1164.97,2690.67C1167.45,2691.51 1169.87,2692.63 1172.2,2694.05C1172,2668.89 1173.66,2643.45 1182.89,2620.19C1173.49,2612.16 1166.8,2603.14 1162.3,2593.5ZM1570.32,2689.89C1571.95,2689.71 1573.38,2688.71 1574.12,2687.24C1574.86,2685.77 1574.81,2684.02 1573.97,2682.6C1569.31,2674.64 1562.42,2668.57 1555.34,2662.69C1546.43,2655.31 1536.96,2647.95 1525.39,2645.06C1510.44,2641.33 1493.88,2642.95 1478.78,2644.89C1469.01,2646.14 1455.88,2646.54 1447.18,2651.68C1444.83,2653.07 1442.92,2655.01 1441.46,2657.26C1439.09,2660.93 1436.33,2668.17 1436.5,2674.26C1436.66,2679.63 1438.88,2684.14 1443.86,2686.32C1455.16,2691.28 1468.31,2688.5 1480.02,2687.12C1491.99,2685.72 1504.15,2684.64 1516.22,2684.49C1524.02,2684.4 1531.71,2684.51 1539.33,2686.29C1547.96,2688.32 1561.16,2690.91 1570.32,2689.89ZM1322.04,2678.43C1323.11,2677.39 1323.63,2675.9 1323.46,2674.42C1322.97,2670.05 1322.46,2664.32 1320.96,2659.2C1319.79,2655.18 1318,2651.53 1315.4,2648.84C1312.3,2645.64 1308.32,2643.76 1303.96,2642.8C1298.38,2641.57 1292.16,2641.89 1286.97,2642.23C1270.19,2643.32 1253.59,2644.77 1236.95,2647.07C1223.17,2648.97 1212.65,2653.92 1202.48,2663.44C1200.97,2664.85 1197.84,2667.29 1195.95,2669.78C1194.61,2671.54 1193.8,2673.39 1193.61,2675.09C1193.36,2677.36 1194.29,2679.72 1196.48,2681.62C1199.01,2683.8 1203.67,2685.42 1205.35,2685.75C1215.07,2687.67 1225.78,2683.76 1235.41,2682.63C1245.9,2681.41 1256.67,2680.42 1267.24,2680.45C1279.85,2680.47 1292.33,2682.28 1304.9,2682.83C1307.11,2682.93 1310.95,2682.93 1314.47,2682.15C1317.45,2681.5 1320.18,2680.26 1322.04,2678.43ZM1614.29,2636.45C1612.13,2637.32 1609.88,2637.92 1607.59,2638.19C1609.78,2652.58 1610.7,2667.14 1610.77,2681.79C1612.32,2680.68 1613.87,2679.76 1615.43,2679.03C1615.45,2678.92 1615.47,2678.81 1615.49,2678.7C1618.24,2665.83 1619.9,2648.83 1614.29,2636.45ZM1560.06,2680.14C1553.59,2679.53 1546.67,2678.03 1541.54,2676.82C1533.16,2674.86 1524.7,2674.67 1516.1,2674.77C1503.7,2674.91 1491.19,2676.02 1478.88,2677.47C1468.81,2678.65 1457.49,2681.68 1447.76,2677.41C1446.94,2677.05 1446.58,2676.31 1446.4,2675.5C1446.16,2674.44 1446.18,2673.26 1446.32,2672.06C1446.73,2668.44 1448.27,2664.64 1449.63,2662.54C1450.27,2661.55 1451.09,2660.67 1452.12,2660.06C1459.78,2655.53 1471.42,2655.64 1480.01,2654.53C1493.95,2652.74 1509.24,2651.05 1523.04,2654.5C1533.17,2657.03 1541.33,2663.71 1549.13,2670.18C1552.95,2673.34 1556.75,2676.53 1560.06,2680.14ZM1204.22,2675.1C1204.46,2674.8 1204.72,2674.5 1204.94,2674.28C1206.46,2672.77 1208.17,2671.43 1209.13,2670.54C1217.73,2662.49 1226.62,2658.31 1238.27,2656.7C1254.69,2654.44 1271.06,2653.01 1287.6,2651.93C1291.3,2651.69 1295.6,2651.4 1299.68,2651.92C1302.97,2652.35 1306.15,2653.26 1308.41,2655.61C1310.44,2657.7 1311.46,2660.86 1312.18,2664.09C1312.81,2666.89 1313.17,2669.78 1313.46,2672.39L1313.46,2672.39C1313.11,2672.49 1312.75,2672.58 1312.38,2672.66C1309.79,2673.22 1306.95,2673.19 1305.32,2673.12C1292.61,2672.56 1280.01,2670.75 1267.27,2670.72C1256.32,2670.7 1245.15,2671.71 1234.29,2672.98C1229.61,2673.52 1224.67,2674.79 1219.72,2675.7C1215.5,2676.47 1211.27,2677.01 1207.23,2676.21C1206.65,2676.09 1205.4,2675.68 1204.22,2675.1ZM1615.22,2604.27C1614.18,2603.2 1613.02,2602.2 1611.79,2601.26C1606.28,2597.06 1599.33,2594.17 1593.66,2592.61C1589.57,2591.48 1578.49,2592.14 1571.65,2595.52C1570.44,2596.12 1569.27,2596.64 1568.71,2597.52C1568.64,2597.69 1568.56,2597.85 1568.48,2598.01C1568.47,2598.04 1568.46,2598.07 1568.45,2598.1C1568.29,2598.67 1568.57,2599.28 1568.94,2600.03C1575.76,2613.78 1590.6,2620.9 1604.61,2625.38L1604.61,2625.38C1607.38,2625.48 1610.08,2624.53 1612.42,2622.96C1612.6,2622.8 1612.79,2622.64 1612.99,2622.5C1613.16,2622.38 1613.32,2622.27 1613.5,2622.17C1615.13,2620.89 1616.53,2619.3 1617.58,2617.61C1619.12,2615.14 1620.03,2612.34 1619.01,2609.85C1618.26,2608 1617.11,2606.31 1615.7,2604.77C1615.53,2604.61 1615.37,2604.45 1615.22,2604.27ZM1179.91,2528.84C1180.12,2525.16 1178.5,2521.2 1176.69,2517.7C1176.37,2517.08 1176.04,2516.47 1175.7,2515.88C1169.05,2534.54 1165.47,2554.49 1169.14,2572.88C1169.21,2573.14 1169.27,2573.39 1169.3,2573.65C1171.94,2586.14 1177.97,2597.89 1188.71,2608C1189.07,2607.39 1189.45,2606.78 1189.85,2606.18C1187.76,2604.31 1185.77,2601.82 1183.96,2598.53C1181.88,2594.73 1180.32,2590.66 1179.13,2586.5C1176.81,2578.37 1175.78,2569.86 1175.75,2561.41C1175.71,2552.45 1177.03,2540.95 1179.91,2528.84ZM1239.93,2468.03C1228.34,2470.89 1219.06,2478.41 1211.78,2488.06C1202.57,2500.26 1196.4,2515.79 1192.78,2530.47C1192.72,2530.93 1192.61,2531.37 1192.46,2531.79C1189.86,2542.79 1188.68,2553.23 1188.71,2561.35C1188.74,2568.62 1189.6,2575.94 1191.6,2582.94C1192.52,2586.17 1193.71,2589.34 1195.33,2592.29C1197.04,2595.41 1198.73,2597.3 1200.81,2597.81C1200.93,2597.84 1201.06,2597.86 1201.18,2597.88C1201.26,2597.89 1201.34,2597.9 1201.41,2597.91C1203.14,2598.1 1204.88,2597.36 1206.61,2596.35C1211.08,2593.73 1215.24,2589.02 1218.32,2584.37C1212.89,2579.47 1208.74,2572.57 1206.73,2563.45C1205.28,2556.88 1205.09,2550.02 1205.78,2543.34C1208.61,2516.16 1221.39,2490 1239.93,2468.03ZM1575.01,2558.74C1562.16,2553.14 1547.9,2551.87 1534.85,2557.56C1531.79,2558.89 1528.98,2560.73 1526.49,2562.94C1526.45,2562.98 1526.41,2563.01 1526.37,2563.05C1523.38,2565.73 1521.9,2568.27 1522.02,2570.84C1522.14,2573.51 1523.8,2575.91 1525.94,2578.08C1529.69,2581.86 1535.09,2584.79 1540.19,2586.34C1546.81,2588.35 1552.97,2588.2 1559.62,2588.38C1561.29,2586.64 1563.41,2585.13 1565.91,2583.89C1575.59,2579.11 1591.31,2578.51 1597.1,2580.11C1599.41,2580.74 1601.88,2581.57 1604.39,2582.59C1598.51,2574.44 1590.79,2567.44 1582.15,2562.38C1579.94,2561.09 1577.66,2559.91 1575.33,2558.88C1575.22,2558.84 1575.12,2558.79 1575.01,2558.74ZM1407.32,2434.63C1390.53,2418.9 1364.31,2419.19 1346.06,2421.31C1315.73,2424.83 1284.76,2441.01 1260.9,2464.17C1260.42,2464.87 1259.81,2465.47 1259.11,2465.93C1237.26,2487.79 1221.7,2515.56 1218.68,2544.68C1218.13,2549.99 1218.24,2555.44 1219.39,2560.66C1221.28,2569.22 1225.81,2574.99 1231.81,2578.01C1241.28,2582.76 1253.85,2580.89 1264.39,2573.93C1272.63,2568.5 1284.58,2554.01 1291.91,2538.54C1291.59,2532.56 1292.43,2525.81 1294.72,2518.25C1297.87,2507.85 1303.15,2498.3 1309.61,2489.62C1321.32,2473.91 1336.02,2461.08 1353.51,2452.19C1368.03,2444.81 1386.8,2438.49 1407.32,2434.63ZM1567.65,2527.62C1554.78,2519.05 1539.33,2512.82 1522.88,2508.76C1480.29,2498.26 1430.79,2502.38 1400.12,2520.53C1394.88,2523.64 1390.16,2527.43 1386.23,2532.1C1383.58,2535.24 1381.38,2538.79 1379.75,2542.57C1377.62,2547.5 1377.19,2551.47 1378.49,2554.7C1378.79,2555.47 1379.18,2556.18 1379.64,2556.85C1379.9,2557.14 1380.14,2557.45 1380.35,2557.79C1383.16,2561.16 1387.9,2563.31 1393.18,2565.01C1407.08,2569.47 1425.16,2569.66 1434.77,2569.32C1440.5,2569.12 1446.18,2568.36 1451.84,2567.49C1469.16,2564.85 1501.41,2557.34 1518.96,2552.32C1522.2,2549.62 1525.8,2547.36 1529.67,2545.68C1545.68,2538.7 1563.18,2539.77 1579.01,2546.36C1582.35,2546.16 1584.86,2545.28 1586.63,2544.33C1581.53,2538.26 1575.42,2532.9 1568.54,2528.22C1568.23,2528.04 1567.93,2527.84 1567.65,2527.62ZM1560.56,2508.66C1545.11,2469.24 1511.79,2451.06 1475.46,2445.54C1457.8,2442.85 1439.42,2443.11 1421.94,2445.39C1421,2445.75 1420,2445.88 1419.02,2445.79C1396.24,2449.07 1375.14,2455.74 1359.38,2463.75C1343.68,2471.73 1330.51,2483.27 1320.01,2497.37C1314.44,2504.85 1309.84,2513.05 1307.13,2522.01C1305.19,2528.4 1304.51,2534 1304.93,2538.84C1304.95,2539.03 1304.97,2539.22 1304.98,2539.41C1305.44,2543.75 1306.8,2547.47 1308.95,2550.59C1313.2,2556.73 1320.31,2560.34 1328.48,2562.02C1340.07,2564.41 1353.79,2562.89 1365.94,2558.12C1364.11,2552.51 1364.29,2545.68 1367.85,2537.43C1369.98,2532.49 1372.85,2527.86 1376.32,2523.74C1381.19,2517.96 1387.01,2513.23 1393.52,2509.37C1426.62,2489.78 1480.01,2484.84 1525.98,2496.17C1538.21,2499.18 1549.9,2503.35 1560.56,2508.66Z" style="fill:rgb(46,52,64);"/>
            </g>
        </g>
    </g>
</svg>
