<?xml version="1.0" encoding="UTF-8" standalone="no"?>
<!DOCTYPE svg PUBLIC "-//W3C//DTD SVG 1.1//EN" "http://www.w3.org/Graphics/SVG/1.1/DTD/svg11.dtd">
<svg width="100%" height="100%" viewBox="0 0 768 992" version="1.1" xmlns="http://www.w3.org/2000/svg" xmlns:xlink="http://www.w3.org/1999/xlink" xml:space="preserve" xmlns:serif="http://www.serif.com/" style="fill-rule:evenodd;clip-rule:evenodd;stroke-linecap:round;stroke-linejoin:round;stroke-miterlimit:1.5;">
    <g transform="matrix(1,0,0,1,-1042.631617,-873.199479)">
        <g transform="matrix(1,0,0,1,-474.193514,361.348676)">
            <g transform="matrix(1.30883,0,0,1.30883,-596.796483,-277.526038)">
                <g transform="matrix(1.051868,0.142011,-0.234935,1.740153,2715.492638,1528.999645)">
                    <g transform="matrix(1.654345,0,0,1,-1359.314176,-467.027297)">
                        <path d="M321.089,339.619C321.089,339.619 279.048,341.446 260.248,309.936C260.248,309.936 350.768,310.03 384.97,316.372C384.97,316.372 369.081,340.564 333.995,339.619C333.995,339.619 361.605,341.074 382.873,317.817C382.873,317.817 337.787,310.981 263.824,311.554C263.824,311.554 276.419,336.528 321.089,339.619Z" style="fill:rgb(34,39,49);stroke:rgb(34,39,49);stroke-width:3.05px;"/>
                    </g>
                    <g transform="matrix(1.654345,0,0,1,-1359.314176,-467.027297)">
                        <path d="M278.059,318.49C278.059,318.49 287.917,325.272 302.787,324.191C302.787,324.191 296.87,323.974 291.96,322.941C285.142,321.507 278.059,318.49 278.059,318.49Z" style="fill:rgb(34,39,49);stroke:rgb(34,39,49);stroke-width:3.05px;"/>
                    </g>
                </g>
                <g transform="matrix(1,0,0,1,1350.978357,529.718645)">
                    <path d="M622.748,395.534L633.821,380.051L628.715,380.051C628.715,380.051 622.501,389.749 622.748,395.534Z" style="fill:rgb(34,39,49);stroke:rgb(34,39,49);stroke-width:5.35px;"/>
                </g>
                <g transform="matrix(1,0,0,1,1348,529)">
                    <path d="M327.817,514.708L295.345,432.236C295.345,432.236 303.772,375.486 310.193,314.436C316.614,253.386 367.779,188.776 388.481,182.374C388.481,182.374 407.276,120.871 517.761,120.404C517.761,120.404 524.665,67.259 568.488,78.3C612.312,89.34 629.402,111.153 629.402,111.153C629.402,111.153 657.922,66.191 741.921,120.404C825.921,174.616 851.348,263.244 850.219,327.908C849.091,392.573 823.106,540 823.106,540L773.743,566.67C773.743,566.67 841.533,268.852 594.609,237.989C335.503,205.603 327.817,514.708 327.817,514.708Z" style="fill:rgb(34,39,49);stroke:rgb(34,39,49);stroke-width:5.35px;"/>
                </g>
                <g transform="matrix(1,0,0,1,1348,529)">
                    <path d="M629.492,397.066L640.496,381.21C640.496,381.21 708.242,388.559 721.189,397.066C734.136,405.574 753.678,448.197 755.312,457.062C755.312,457.062 741.904,422.425 629.492,397.066Z" style="fill:rgb(34,39,49);stroke:rgb(34,39,49);stroke-width:5.35px;"/>
                </g>
                <g transform="matrix(-0.922469,-0.386072,-0.386072,0.922469,2610.099858,784.046849)">
                    <path d="M627.492,397.066L638.496,381.21C638.496,381.21 708.242,388.559 721.189,397.066C734.136,405.574 753.678,448.197 755.312,457.062C755.312,457.062 739.904,422.425 627.492,397.066Z" style="fill:rgb(34,39,49);stroke:rgb(34,39,49);stroke-width:5.35px;"/>
                </g>
                <g transform="matrix(1,0,0,1,1348,529)">
                    <path d="M750.712,686.323C750.712,686.323 758.129,700.143 773.707,699.107C789.284,698.07 829.064,628.548 824.386,553.272C823.534,539.577 821.456,525.489 821.456,525.489C821.456,525.489 826.03,563.95 807.19,634.657C788.351,705.363 767.637,700.729 750.712,686.323Z" style="fill:rgb(34,39,49);stroke:rgb(34,39,49);stroke-width:5.35px;"/>
                </g>
                <g transform="matrix(-1.183388,-0.397105,-0.368169,1.097156,2814.221003,694.463463)">
                    <path d="M752.45,687.735C752.45,687.735 758.129,700.143 773.707,699.107C789.284,698.07 829.064,628.548 824.386,553.272C823.534,539.577 819.571,539.219 819.571,539.219C819.571,539.219 826.03,563.95 807.19,634.657C788.351,705.363 769.375,702.141 752.45,687.735Z" style="fill:rgb(34,39,49);stroke:rgb(34,39,49);stroke-width:4.44px;"/>
                </g>
                <g transform="matrix(1,0,0,1,1348,529)">
                    <path d="M622.126,463.024C622.126,463.024 680.691,440.542 726.116,485.917C726.116,485.917 692.917,462.569 622.126,463.024Z" style="fill:rgb(34,39,49);stroke:rgb(34,39,49);stroke-width:5.35px;"/>
                </g>
                <g transform="matrix(1,0,0,1,1138.134638,492.616545)">
                    <path d="M611.298,471.447C611.298,471.447 666.853,440.816 716.337,480.341C716.337,480.341 685.099,464.86 611.298,471.447Z" style="fill:rgb(34,39,49);stroke:rgb(34,39,49);stroke-width:5.35px;"/>
                </g>
                <g transform="matrix(0.996567,0,0,1.007046,1349.097997,523.157815)">
                    <path d="M322.578,621.63C322.578,621.63 313.373,684.312 328.772,718.477C344.171,752.642 458.365,821.528 519.589,828.553C580.814,835.579 723.331,778.446 734.212,751.701C745.092,724.955 771.88,593.905 776.195,564.715C776.195,564.715 739.933,737.077 731.596,750.244C727.101,757.344 621.009,826.51 519.589,819.322C461.156,815.18 347.713,746.895 333.113,718.477C325.225,703.121 321.685,683.985 322.578,621.63Z" style="fill:rgb(34,39,49);stroke:rgb(34,39,49);stroke-width:5.34px;"/>
                </g>
                <g transform="matrix(1,0,0,1,1348,529)">
                    <path d="M478.799,529.421C478.799,529.421 539.638,485.644 551.582,419.136C551.582,419.136 551.984,487.093 479.664,529.291C479.369,529.463 481.373,535.803 485.066,540.478C489.272,545.804 495.236,549.532 494.855,549.434C480.758,545.82 478.818,529.422 478.799,529.421Z" style="fill:rgb(34,39,49);stroke:rgb(34,39,49);stroke-width:5.35px;"/>
                </g>
                <g transform="matrix(1,0,0,1,1348,529)">
                    <path d="M603.843,566.67C603.843,566.67 627.426,561.885 622.126,540C622.126,540 624.693,553.889 603.843,566.67Z" style="fill:rgb(34,39,49);stroke:rgb(34,39,49);stroke-width:5.35px;"/>
                </g>
            </g>
        </g>
    </g>
</svg>
